<?xml version="1.0" encoding="utf-8"?>
<!-- Generator: Adobe Illustrator 21.0.2, SVG Export Plug-In . SVG Version: 6.00 Build 0)  -->
<svg version="1.1" id="Layer_1" xmlns="http://www.w3.org/2000/svg" xmlns:xlink="http://www.w3.org/1999/xlink" x="0px" y="0px"
	 viewBox="0 0 198.228 55.006" style="enable-background:new 0 0 198.228 55.006;" xml:space="preserve">
<g>
	<g>
		<g>
			<path style="fill:#FFFFFF;" d="M81.671,21.327c-0.102-0.234-0.338-0.385-0.599-0.385h-2.254c-0.258,0-0.492,0.148-0.596,0.378
				L69.32,40.97c-0.089,0.197-0.07,0.421,0.05,0.601c0.121,0.18,0.324,0.287,0.545,0.287h2.711c0.263,0,0.499-0.153,0.6-0.388
				l1.915-4.441h9.232l1.888,4.438c0.101,0.238,0.337,0.391,0.601,0.391h2.796c0.219,0,0.422-0.106,0.543-0.284
				c0.121-0.178,0.142-0.401,0.056-0.597L81.671,21.327z M76.632,33.598l3.227-7.432l3.073,7.432H76.632z"/>
			<path style="fill:#FFFFFF;" d="M100.556,19.686c-0.272-0.143-0.607-0.25-0.996-0.317c-0.358-0.062-0.703-0.093-1.027-0.093
				c-0.983,0-1.831,0.154-2.523,0.459c-0.706,0.312-1.286,0.756-1.722,1.321c-0.425,0.552-0.727,1.207-0.899,1.947
				c-0.162,0.698-0.244,1.478-0.244,2.318v2.281h-2.259c-0.359,0-0.651,0.284-0.651,0.633v1.832c0,0.349,0.292,0.633,0.651,0.633
				h2.259v10.524c0,0.349,0.292,0.633,0.651,0.633h2.226c0.359,0,0.651-0.284,0.651-0.633V30.701h2.602
				c0.359,0,0.651-0.284,0.651-0.633v-1.832c0-0.349-0.292-0.633-0.651-0.633h-2.602v-1.809c0-0.541,0.014-1.052,0.042-1.518
				c0.024-0.4,0.1-0.739,0.227-1.008c0.108-0.228,0.264-0.402,0.478-0.53c0.217-0.131,0.553-0.197,0.999-0.197
				c0.398,0,0.834,0.081,1.295,0.242c0.071,0.024,0.144,0.036,0.217,0.036c0.117,0,0.232-0.031,0.333-0.089
				c0.167-0.097,0.28-0.26,0.31-0.446l0.314-1.943C100.931,20.077,100.797,19.814,100.556,19.686z"/>
			<path style="fill:#FFFFFF;" d="M115.014,27.603h-2.425c-0.269,0-0.514,0.165-0.609,0.409l-3.398,8.727l-3.548-8.735
				c-0.099-0.244-0.337-0.401-0.606-0.401h-2.596c-0.218,0-0.42,0.105-0.541,0.281c-0.121,0.176-0.144,0.398-0.061,0.594
				l5.439,12.846l-0.825,2.208c-0.219,0.574-0.478,1.032-0.768,1.362c-0.215,0.244-0.576,0.362-1.104,0.362
				c-0.295,0-0.558-0.013-0.781-0.038c-0.186-0.021-0.368-0.067-0.538-0.136c-0.08-0.033-0.164-0.049-0.251-0.049
				c-0.112,0-0.223,0.028-0.321,0.082c-0.176,0.097-0.294,0.264-0.323,0.459l-0.285,1.887c-0.041,0.271,0.101,0.536,0.353,0.659
				c0.372,0.181,0.778,0.295,1.205,0.341c0.372,0.04,0.736,0.059,1.083,0.059c0.742,0,1.393-0.103,1.933-0.307
				c0.549-0.207,1.027-0.507,1.424-0.892c0.38-0.37,0.708-0.816,0.975-1.326c0.247-0.471,0.49-0.998,0.725-1.568l6.448-15.959
				c0.079-0.195,0.053-0.415-0.068-0.588C115.431,27.706,115.23,27.603,115.014,27.603z"/>
			<path style="fill:#FFFFFF;" d="M129.694,41.121c-0.055-0.318-0.101-0.671-0.136-1.051c-0.036-0.374-0.054-0.741-0.054-1.092
				v-5.579c0-2.007-0.501-3.544-1.489-4.569c-0.999-1.035-2.599-1.559-4.755-1.559c-1.04,0-2.077,0.176-3.084,0.522
				c-1.031,0.354-1.936,0.915-2.689,1.667c-0.247,0.246-0.248,0.633-0.003,0.881l1.398,1.415c0.124,0.126,0.291,0.195,0.47,0.195
				c0.165,0,0.322-0.06,0.443-0.169c0.463-0.418,1.004-0.732,1.608-0.933c0.623-0.208,1.267-0.313,1.914-0.313
				c0.881,0,1.56,0.192,2.017,0.57c0.384,0.319,0.593,0.782,0.634,1.411h-0.197c-0.827,0-1.751,0.038-2.747,0.113
				c-1.033,0.078-2.012,0.277-2.909,0.59c-0.943,0.33-1.746,0.845-2.387,1.53c-0.68,0.728-1.025,1.722-1.025,2.952
				c0,0.733,0.161,1.394,0.477,1.965c0.31,0.562,0.732,1.038,1.254,1.415c0.507,0.368,1.105,0.649,1.78,0.837
				c0.654,0.182,1.363,0.274,2.105,0.274c1.141,0,2.141-0.245,2.973-0.728c0.318-0.185,0.614-0.393,0.886-0.622
				c0.025,0.188,0.059,0.368,0.103,0.538c0.072,0.282,0.332,0.48,0.631,0.48h2.14c0.192,0,0.373-0.082,0.497-0.224
				C129.672,41.492,129.725,41.305,129.694,41.121z M122.689,39.093c-0.71,0-1.299-0.14-1.751-0.417
				c-0.366-0.223-0.536-0.604-0.536-1.198c0-0.645,0.273-1.06,0.885-1.343c0.744-0.346,1.792-0.521,3.115-0.521h1.575l0,0.177
				c-0.017,0.47-0.1,0.916-0.249,1.324c-0.142,0.391-0.348,0.736-0.613,1.023c-0.262,0.285-0.597,0.517-0.995,0.691
				C123.721,39.004,123.24,39.093,122.689,39.093z"/>
		</g>
		<g>
			<path style="fill:#FFFFFF;" d="M144.241,22.272c-0.677-0.413-1.435-0.707-2.253-0.874c-0.797-0.162-1.571-0.245-2.3-0.245h-5.821
				c-0.24,0-0.434,0.189-0.434,0.422v19.65c0,0.233,0.194,0.422,0.434,0.422h1.883c0.24,0,0.434-0.189,0.434-0.422v-8.903h3.931
				c0.837,0,1.65-0.108,2.416-0.322c0.781-0.217,1.482-0.553,2.084-1c0.611-0.454,1.105-1.04,1.466-1.743
				c0.362-0.704,0.545-1.543,0.545-2.493c0-1.089-0.227-2.015-0.674-2.754C145.511,23.279,144.935,22.694,144.241,22.272z
				 M143.558,28.201c-0.214,0.384-0.494,0.694-0.835,0.922c-0.354,0.238-0.765,0.412-1.225,0.52
				c-0.476,0.112-0.97,0.169-1.467,0.169h-3.846v-6.15h3.731c0.494,0,0.996,0.061,1.492,0.182c0.476,0.116,0.901,0.303,1.264,0.557
				c0.356,0.25,0.65,0.573,0.874,0.961c0.219,0.378,0.329,0.85,0.329,1.403C143.876,27.338,143.769,27.821,143.558,28.201z"/>
			<path style="fill:#FFFFFF;" d="M159.082,29.66c-0.561-0.604-1.261-1.096-2.082-1.461c-0.824-0.366-1.782-0.552-2.848-0.552
				c-1.026,0-1.978,0.185-2.829,0.549c-0.848,0.364-1.596,0.872-2.222,1.51c-0.627,0.64-1.118,1.401-1.46,2.262
				c-0.341,0.858-0.514,1.806-0.514,2.817c0,1.045,0.167,2.015,0.498,2.881c0.333,0.874,0.82,1.642,1.448,2.281
				c0.628,0.641,1.388,1.146,2.258,1.5c0.867,0.353,1.845,0.533,2.907,0.533c1.235,0,2.384-0.227,3.415-0.675
				c1.051-0.457,1.944-1.218,2.653-2.262c0.121-0.179,0.086-0.418-0.083-0.556l-1.255-1.027c-0.079-0.064-0.178-0.099-0.279-0.099
				c-0.024,0-0.047,0.002-0.071,0.006c-0.125,0.02-0.235,0.092-0.301,0.198c-0.393,0.632-0.969,1.139-1.71,1.508
				c-0.752,0.374-1.54,0.564-2.342,0.564c-0.924,0-1.68-0.167-2.246-0.495c-0.582-0.338-1.052-0.747-1.396-1.216
				c-0.347-0.472-0.588-0.961-0.717-1.454c-0.08-0.308-0.137-0.582-0.169-0.82h10.605c0.24,0,0.434-0.189,0.434-0.422v-1.166
				c0-0.785-0.143-1.571-0.425-2.335C160.068,30.96,159.641,30.264,159.082,29.66z M149.796,33.309
				c0.029-0.101,0.067-0.226,0.118-0.376c0.137-0.409,0.375-0.84,0.708-1.284c0.326-0.434,0.779-0.826,1.346-1.166
				c0.546-0.327,1.252-0.493,2.098-0.493c0.568,0,1.112,0.102,1.619,0.302c0.507,0.201,0.951,0.476,1.319,0.817
				c0.367,0.341,0.662,0.741,0.876,1.19c0.151,0.318,0.248,0.656,0.291,1.01H149.796z"/>
			<path style="fill:#FFFFFF;" d="M176.842,29.672c-0.657-0.639-1.445-1.142-2.341-1.494c-0.895-0.352-1.885-0.53-2.944-0.53
				c-0.52,0-1.058,0.054-1.599,0.161c-0.544,0.108-1.071,0.277-1.568,0.503c-0.496,0.227-0.964,0.517-1.392,0.863
				c-0.12,0.097-0.234,0.2-0.344,0.307v-1.079c0-0.233-0.194-0.422-0.434-0.422h-1.712c-0.24,0-0.434,0.189-0.434,0.422v19.151
				c0,0.233,0.194,0.422,0.434,0.422h1.712c0.24,0,0.434-0.189,0.434-0.422v-7.407c0.109,0.107,0.224,0.21,0.344,0.306
				c0.427,0.347,0.895,0.637,1.392,0.863c0.494,0.226,1.021,0.395,1.568,0.504c0.541,0.107,1.079,0.161,1.599,0.161
				c1.059,0,2.05-0.179,2.944-0.531c0.897-0.353,1.685-0.855,2.341-1.494c0.657-0.639,1.174-1.405,1.537-2.277
				c0.362-0.87,0.545-1.834,0.545-2.865c0-1.03-0.183-1.994-0.545-2.865C178.016,31.077,177.499,30.311,176.842,29.672z
				 M176.013,36.71c-0.217,0.581-0.536,1.092-0.95,1.519c-0.414,0.428-0.923,0.774-1.514,1.027
				c-0.588,0.253-1.258,0.381-1.993,0.381c-0.718,0-1.39-0.129-1.998-0.382c-0.613-0.256-1.154-0.605-1.608-1.037
				c-0.452-0.431-0.814-0.946-1.075-1.532c-0.26-0.581-0.392-1.211-0.392-1.872c0-0.66,0.132-1.29,0.392-1.872
				c0.262-0.586,0.624-1.101,1.076-1.532c0.454-0.433,0.995-0.782,1.608-1.037c0.608-0.254,1.281-0.382,1.998-0.382
				c0.734,0,1.405,0.128,1.993,0.381c0.59,0.253,1.1,0.599,1.514,1.027c0.413,0.427,0.733,0.939,0.95,1.52
				c0.22,0.59,0.331,1.228,0.331,1.896C176.344,35.483,176.232,36.12,176.013,36.71z"/>
			<path style="fill:#FFFFFF;" d="M195.076,31.729c-0.284-0.769-0.711-1.465-1.27-2.069c-0.561-0.604-1.261-1.096-2.082-1.461
				c-0.824-0.366-1.782-0.552-2.848-0.552c-1.026,0-1.978,0.185-2.829,0.549c-0.848,0.364-1.596,0.872-2.222,1.51
				c-0.627,0.64-1.118,1.401-1.46,2.262c-0.341,0.858-0.514,1.806-0.514,2.817c0,1.045,0.167,2.015,0.498,2.881
				c0.333,0.874,0.82,1.642,1.448,2.281c0.628,0.641,1.388,1.146,2.258,1.5c0.867,0.353,1.845,0.533,2.907,0.533
				c1.235,0,2.384-0.227,3.415-0.675c1.051-0.457,1.944-1.218,2.653-2.262c0.121-0.179,0.086-0.418-0.083-0.556l-1.255-1.027
				c-0.079-0.064-0.178-0.099-0.279-0.099c-0.024,0-0.047,0.002-0.071,0.006c-0.125,0.02-0.235,0.092-0.301,0.198
				c-0.393,0.632-0.969,1.139-1.71,1.508c-0.752,0.374-1.54,0.564-2.342,0.564c-0.924,0-1.68-0.167-2.246-0.495
				c-0.582-0.338-1.052-0.747-1.396-1.216c-0.347-0.472-0.588-0.961-0.717-1.454c-0.08-0.308-0.137-0.582-0.169-0.82h10.605
				c0.24,0,0.434-0.189,0.434-0.422v-1.166C195.501,33.279,195.358,32.493,195.076,31.729z M184.519,33.309
				c0.029-0.101,0.067-0.226,0.118-0.376c0.137-0.409,0.375-0.84,0.708-1.284c0.326-0.434,0.779-0.826,1.346-1.166
				c0.546-0.327,1.252-0.493,2.098-0.493c0.568,0,1.112,0.102,1.619,0.302c0.507,0.201,0.951,0.476,1.319,0.817
				c0.367,0.341,0.662,0.741,0.876,1.19c0.151,0.318,0.248,0.656,0.291,1.01H184.519z"/>
		</g>
	</g>
	<g>
		<g>
			<path style="fill:#54D8A3;" d="M50.682,51.055c-0.997,0-1.982-0.265-2.851-0.767c-2.728-1.575-3.666-5.075-2.091-7.803
				c1.018-1.762,2.915-2.857,4.953-2.857c0.996,0,1.982,0.265,2.85,0.766c1.322,0.763,2.267,1.995,2.662,3.469
				c0.395,1.474,0.192,3.013-0.571,4.334C54.618,49.96,52.72,51.055,50.682,51.055z"/>
			<path style="fill:#54D8A3;" d="M50.694,40.128L50.694,40.128c0.908,0,1.807,0.242,2.6,0.699c2.489,1.437,3.345,4.631,1.908,7.12
				c-0.929,1.608-2.661,2.607-4.52,2.607c-0.909,0-1.808-0.242-2.601-0.699c-1.206-0.696-2.068-1.82-2.429-3.165
				c-0.36-1.345-0.175-2.75,0.521-3.955C47.102,41.127,48.834,40.128,50.694,40.128 M50.694,39.128
				c-2.147,0-4.235,1.114-5.386,3.107c-1.716,2.971-0.698,6.771,2.274,8.486c0.979,0.565,2.046,0.833,3.101,0.833
				c2.147,0,4.235-1.114,5.386-3.107c1.715-2.971,0.697-6.771-2.274-8.486C52.816,39.397,51.748,39.128,50.694,39.128L50.694,39.128
				z"/>
		</g>
		<path style="fill:#FFFFFF;" d="M43.086,21.964c-2.891-1.669-6.559-0.745-8.336,2.041l-0.277,0.479
			c-0.003,0.005-0.005,0.011-0.008,0.016c-0.003,0.005-0.006,0.01-0.01,0.015l-0.277,0.479c-0.003,0.005-0.005,0.011-0.008,0.016
			c-0.003,0.005-0.006,0.01-0.01,0.015l-1.851,3.205c-0.804,1.392-2.601,1.874-3.994,1.07l-0.085-0.049
			c-1.393-0.804-1.874-2.601-1.07-3.994l8.272-14.327c1.075-2.803-0.007-6.049-2.69-7.597c-2.971-1.716-6.771-0.697-8.486,2.274
			c-0.07,0.121-0.129,0.246-0.19,0.37c-0.077,0.115-0.156,0.228-0.226,0.349c-0.07,0.122-0.129,0.246-0.19,0.37
			c-0.077,0.115-0.156,0.228-0.226,0.349c-0.07,0.122-0.129,0.246-0.19,0.37c-0.077,0.115-0.156,0.228-0.226,0.349
			c-0.07,0.121-0.129,0.246-0.19,0.37c-0.077,0.115-0.156,0.228-0.226,0.349c-0.07,0.122-0.129,0.246-0.19,0.37
			c-0.077,0.115-0.156,0.228-0.226,0.349c-0.07,0.122-0.129,0.246-0.19,0.37c-0.077,0.115-0.156,0.228-0.226,0.349
			c-0.07,0.121-0.129,0.246-0.19,0.37c-0.077,0.115-0.156,0.228-0.226,0.349c-0.07,0.122-0.129,0.246-0.19,0.37
			c-0.077,0.115-0.156,0.228-0.226,0.349c-0.07,0.122-0.129,0.246-0.19,0.37c-0.077,0.115-0.156,0.228-0.226,0.349
			c-0.07,0.121-0.129,0.246-0.19,0.37c-0.077,0.115-0.156,0.228-0.226,0.349c-0.07,0.122-0.129,0.246-0.19,0.37
			c-0.077,0.115-0.156,0.228-0.226,0.349c-0.07,0.122-0.129,0.246-0.19,0.37c-0.077,0.115-0.156,0.228-0.226,0.349
			c-0.07,0.121-0.129,0.246-0.19,0.37c-0.077,0.115-0.156,0.228-0.226,0.349c-0.07,0.122-0.129,0.246-0.19,0.37
			c-0.077,0.115-0.156,0.228-0.226,0.349c-0.07,0.122-0.129,0.246-0.19,0.37c-0.077,0.115-0.156,0.228-0.226,0.349
			c-0.07,0.121-0.129,0.246-0.19,0.37c-0.077,0.115-0.156,0.228-0.226,0.349c-0.07,0.122-0.129,0.246-0.19,0.37
			c-0.077,0.115-0.156,0.228-0.226,0.349c-0.07,0.122-0.129,0.246-0.19,0.37c-0.077,0.115-0.156,0.228-0.226,0.349
			c-0.07,0.121-0.129,0.246-0.19,0.37c-0.077,0.115-0.156,0.228-0.226,0.349c-0.07,0.122-0.129,0.246-0.19,0.37
			c-0.077,0.115-0.156,0.228-0.226,0.349c-0.07,0.122-0.129,0.246-0.19,0.37c-0.077,0.115-0.156,0.228-0.226,0.349
			c-0.07,0.122-0.129,0.246-0.19,0.37c-0.077,0.115-0.156,0.228-0.226,0.349c-0.07,0.121-0.129,0.246-0.19,0.37
			c-0.077,0.115-0.156,0.228-0.226,0.349c-0.07,0.122-0.129,0.246-0.19,0.37c-0.077,0.115-0.156,0.228-0.226,0.349
			c-0.07,0.121-0.129,0.246-0.19,0.37c-0.077,0.115-0.156,0.228-0.226,0.349c-0.035,0.061-0.064,0.123-0.095,0.185
			c-0.037,0.059-0.078,0.114-0.113,0.175c-0.035,0.061-0.062,0.124-0.095,0.185c-0.038,0.058-0.078,0.114-0.113,0.175
			c-0.07,0.122-0.129,0.246-0.19,0.37c-0.077,0.115-0.156,0.228-0.226,0.349c-0.07,0.122-0.129,0.246-0.19,0.37
			c-0.077,0.115-0.156,0.228-0.226,0.349c-0.07,0.121-0.129,0.246-0.19,0.37c-0.077,0.115-0.156,0.228-0.226,0.349
			c-0.07,0.122-0.129,0.246-0.19,0.37c-0.077,0.115-0.156,0.228-0.226,0.349c-0.07,0.122-0.129,0.246-0.19,0.37
			c-0.077,0.115-0.156,0.228-0.226,0.349c-0.07,0.121-0.129,0.246-0.19,0.37c-0.077,0.115-0.156,0.228-0.226,0.349
			c-0.07,0.122-0.129,0.246-0.19,0.37c-0.077,0.115-0.156,0.228-0.226,0.349c-0.07,0.122-0.129,0.246-0.19,0.37
			c-0.077,0.115-0.156,0.228-0.226,0.349c-0.07,0.121-0.129,0.246-0.19,0.37c-0.077,0.115-0.156,0.228-0.226,0.349
			c-0.07,0.122-0.129,0.246-0.19,0.37c-0.077,0.115-0.156,0.228-0.226,0.349c-0.07,0.122-0.129,0.246-0.19,0.37
			C9.029,32.007,8.95,32.12,8.88,32.241c-0.07,0.121-0.129,0.246-0.19,0.37c-0.077,0.115-0.156,0.228-0.226,0.349
			c-0.07,0.122-0.129,0.246-0.19,0.37c-0.077,0.115-0.156,0.228-0.226,0.349c-0.07,0.122-0.129,0.246-0.19,0.37
			c-0.077,0.115-0.156,0.228-0.226,0.349c-0.07,0.121-0.129,0.246-0.19,0.37c-0.077,0.115-0.156,0.228-0.226,0.349
			c-0.07,0.122-0.129,0.246-0.19,0.37c-0.077,0.115-0.156,0.228-0.226,0.349c-0.07,0.122-0.129,0.246-0.19,0.37
			c-0.077,0.115-0.156,0.228-0.226,0.349c-0.07,0.122-0.129,0.246-0.19,0.37c-0.077,0.115-0.156,0.228-0.226,0.349
			c-0.07,0.121-0.129,0.246-0.19,0.37C5.704,37.766,5.626,37.879,5.555,38c-0.07,0.122-0.129,0.246-0.19,0.37
			C5.289,38.485,5.21,38.598,5.14,38.72c-0.07,0.121-0.129,0.246-0.19,0.37c-0.077,0.115-0.156,0.228-0.226,0.349
			c-0.07,0.122-0.129,0.246-0.19,0.37c-0.077,0.115-0.156,0.228-0.226,0.349c-0.07,0.122-0.129,0.246-0.19,0.37
			c-0.077,0.115-0.156,0.228-0.226,0.349c-0.07,0.122-0.129,0.246-0.19,0.37c-0.077,0.115-0.156,0.228-0.226,0.349
			c-0.07,0.121-0.129,0.246-0.19,0.37c-0.077,0.115-0.156,0.228-0.226,0.349c-1.716,2.971-0.697,6.771,2.274,8.486
			c2.779,1.604,6.281,0.817,8.126-1.721l8.455-14.645c0.804-1.393,2.601-1.874,3.994-1.07l0.085,0.049
			c1.392,0.804,1.874,2.601,1.07,3.994l-3.428,5.937c-1.163,2.833-0.088,6.158,2.638,7.731c2.971,1.716,6.771,0.697,8.486-2.274
			c0.05-0.086,0.089-0.175,0.134-0.262c0.053-0.083,0.11-0.161,0.16-0.247c0.05-0.086,0.089-0.175,0.134-0.262
			c0.053-0.083,0.11-0.161,0.16-0.248c0.05-0.086,0.089-0.175,0.134-0.262c0.053-0.083,0.11-0.161,0.16-0.248
			c0.05-0.086,0.089-0.175,0.134-0.262c0.053-0.083,0.11-0.161,0.16-0.247c0.05-0.086,0.089-0.175,0.134-0.262
			c0.053-0.083,0.11-0.161,0.16-0.247c0.05-0.086,0.089-0.175,0.134-0.262c0.053-0.083,0.11-0.161,0.16-0.248
			c0.05-0.086,0.089-0.175,0.134-0.262c0.053-0.083,0.11-0.161,0.16-0.248c0.05-0.086,0.089-0.175,0.134-0.262
			c0.053-0.083,0.11-0.161,0.16-0.247c0.05-0.086,0.089-0.175,0.134-0.262c0.053-0.083,0.11-0.161,0.16-0.247
			c0.05-0.086,0.089-0.175,0.134-0.262c0.053-0.083,0.11-0.161,0.16-0.247c0.05-0.086,0.089-0.175,0.134-0.262
			c0.053-0.083,0.11-0.161,0.16-0.248c0.05-0.086,0.089-0.175,0.134-0.262c0.053-0.083,0.11-0.161,0.16-0.247
			c0.05-0.086,0.089-0.175,0.134-0.262c0.053-0.083,0.11-0.161,0.16-0.247c0.05-0.086,0.089-0.175,0.134-0.262
			c0.053-0.083,0.11-0.161,0.16-0.247c0.05-0.086,0.089-0.175,0.134-0.262c0.053-0.083,0.11-0.161,0.16-0.248
			c0.05-0.086,0.089-0.175,0.134-0.262c0.053-0.083,0.11-0.161,0.16-0.248c0.05-0.086,0.089-0.175,0.134-0.262
			c0.053-0.083,0.11-0.161,0.16-0.247s0.089-0.175,0.134-0.262c0.053-0.083,0.11-0.161,0.16-0.248
			c0.05-0.086,0.089-0.175,0.134-0.262c0.053-0.083,0.11-0.161,0.16-0.247c0.05-0.086,0.089-0.175,0.134-0.262
			c0.053-0.083,0.11-0.161,0.16-0.248c0.05-0.086,0.089-0.175,0.134-0.262c0.053-0.083,0.11-0.161,0.16-0.247
			c0.05-0.086,0.089-0.175,0.134-0.262c0.053-0.083,0.11-0.161,0.16-0.247c0.05-0.086,0.089-0.175,0.134-0.262
			c0.053-0.083,0.11-0.161,0.16-0.247c0.05-0.086,0.089-0.175,0.134-0.262c0.053-0.083,0.11-0.161,0.16-0.248
			c0.05-0.086,0.089-0.175,0.134-0.262c0.053-0.083,0.11-0.161,0.16-0.248c0.05-0.086,0.089-0.175,0.134-0.262
			c0.053-0.083,0.11-0.161,0.16-0.247c0.05-0.086,0.089-0.175,0.134-0.262c0.053-0.083,0.11-0.161,0.16-0.247
			c0.05-0.086,0.089-0.175,0.134-0.262c0.053-0.083,0.11-0.161,0.16-0.247c0.05-0.086,0.089-0.175,0.134-0.262
			c0.053-0.083,0.11-0.161,0.16-0.248c0.05-0.086,0.089-0.175,0.134-0.262c0.053-0.083,0.11-0.161,0.16-0.247
			c0.05-0.086,0.089-0.175,0.134-0.262c0.053-0.083,0.11-0.161,0.16-0.247c0.05-0.086,0.089-0.175,0.134-0.262
			c0.053-0.083,0.11-0.161,0.16-0.247c0.05-0.086,0.089-0.175,0.134-0.262c0.053-0.083,0.11-0.161,0.16-0.248
			c0.05-0.086,0.089-0.175,0.134-0.262c0.053-0.083,0.11-0.161,0.16-0.247c0.05-0.086,0.089-0.175,0.134-0.262
			c0.053-0.083,0.11-0.161,0.16-0.247c0.05-0.086,0.089-0.175,0.134-0.262c0.053-0.083,0.11-0.161,0.16-0.247
			C47.076,27.479,46.058,23.679,43.086,21.964z"/>
	</g>
</g>
</svg>
